TITLE ""
FILE "DISC1Track14.mp3" MP3
  TRACK 01 AUDIO
    TITLE "DISC1Track14_01"
    INDEX 01 00:00:00
  TRACK 02 AUDIO
    TITLE "DISC1Track14_02"
    INDEX 01 00:01:37
  TRACK 03 AUDIO
    TITLE "DISC1Track14_03"
    INDEX 01 00:01:49
  TRACK 04 AUDIO
    TITLE "DISC1Track14_04"
    INDEX 01 00:04:18
  TRACK 05 AUDIO
    TITLE "DISC1Track14_05"
    INDEX 01 00:06:62
  TRACK 06 AUDIO
    TITLE "DISC1Track14_06"
    INDEX 01 00:09:11
  TRACK 07 AUDIO
    TITLE "DISC1Track14_07"
    INDEX 01 00:09:25
  TRACK 08 AUDIO
    TITLE "DISC1Track14_08"
    INDEX 01 00:12:08
  TRACK 09 AUDIO
    TITLE "DISC1Track14_09"
    INDEX 01 00:14:59
  TRACK 10 AUDIO
    TITLE "DISC1Track14_10"
    INDEX 01 00:17:03
  TRACK 11 AUDIO
    TITLE "DISC1Track14_11"
    INDEX 01 00:17:17
  TRACK 12 AUDIO
    TITLE "DISC1Track14_12"
    INDEX 01 00:18:49
  TRACK 13 AUDIO
    TITLE "DISC1Track14_13"
    INDEX 01 00:20:52
  TRACK 14 AUDIO
    TITLE "DISC1Track14_14"
    INDEX 01 00:22:24
  TRACK 15 AUDIO
    TITLE "DISC1Track14_15"
    INDEX 01 00:22:39
  TRACK 16 AUDIO
    TITLE "DISC1Track14_16"
    INDEX 01 00:26:08
  TRACK 17 AUDIO
    TITLE "DISC1Track14_17"
    INDEX 01 00:29:28
  TRACK 18 AUDIO
    TITLE "DISC1Track14_18"
    INDEX 01 00:32:12
  TRACK 19 AUDIO
    TITLE "DISC1Track14_19"
    INDEX 01 00:32:28
  TRACK 20 AUDIO
    TITLE "DISC1Track14_20"
    INDEX 01 00:36:06
  TRACK 21 AUDIO
    TITLE "DISC1Track14_21"
    INDEX 01 00:39:38
  TRACK 22 AUDIO
    TITLE "DISC1Track14_22"
    INDEX 01 00:42:32
  TRACK 23 AUDIO
    TITLE "DISC1Track14_23"
    INDEX 01 00:42:50
  TRACK 24 AUDIO
    TITLE "DISC1Track14_24"
    INDEX 01 00:45:23
  TRACK 25 AUDIO
    TITLE "DISC1Track14_25"
    INDEX 01 00:48:07
  TRACK 26 AUDIO
    TITLE "DISC1Track14_26"
    INDEX 01 00:50:24
  TRACK 27 AUDIO
    TITLE "DISC1Track14_27"
    INDEX 01 00:50:47
  TRACK 28 AUDIO
    TITLE "DISC1Track14_28"
    INDEX 01 00:53:73
  TRACK 29 AUDIO
    TITLE "DISC1Track14_29"
    INDEX 01 00:57:47
  TRACK 30 AUDIO
    TITLE "DISC1Track14_30"
    INDEX 01 01:00:61
  TRACK 31 AUDIO
    TITLE "DISC1Track14_31"
    INDEX 01 01:01:02
  TRACK 32 AUDIO
    TITLE "DISC1Track14_32"
    INDEX 01 01:04:30
  TRACK 33 AUDIO
    TITLE "DISC1Track14_33"
    INDEX 01 01:07:03
  TRACK 34 AUDIO
    TITLE "DISC1Track14_34"
    INDEX 01 01:09:15
  TRACK 35 AUDIO
    TITLE "DISC1Track14_35"
    INDEX 01 01:09:29
  TRACK 36 AUDIO
    TITLE "DISC1Track14_36"
    INDEX 01 01:11:75
  TRACK 37 AUDIO
    TITLE "DISC1Track14_37"
    INDEX 01 01:14:69
  TRACK 38 AUDIO
    TITLE "DISC1Track14_38"
    INDEX 01 01:17:31
  TRACK 39 AUDIO
    TITLE "DISC1Track14_39"
    INDEX 01 01:17:44
  TRACK 40 AUDIO
    TITLE "DISC1Track14_40"
    INDEX 01 01:19:08
  TRACK 41 AUDIO
    TITLE "DISC1Track14_41"
    INDEX 01 01:21:22
  TRACK 42 AUDIO
    TITLE "DISC1Track14_42"
    INDEX 01 01:23:10
  TRACK 43 AUDIO
    TITLE "DISC1Track14_43"
    INDEX 01 01:23:19
  TRACK 44 AUDIO
    TITLE "DISC1Track14_44"
    INDEX 01 01:25:40
  TRACK 45 AUDIO
    TITLE "DISC1Track14_45"
    INDEX 01 01:28:05
  TRACK 46 AUDIO
    TITLE "DISC1Track14_46"
    INDEX 01 01:30:19
  TRACK 47 AUDIO
    TITLE "DISC1Track14_47"
    INDEX 01 01:30:29
  TRACK 48 AUDIO
    TITLE "DISC1Track14_48"
    INDEX 01 01:36:01
  TRACK 49 AUDIO
    TITLE "DISC1Track14_49"
    INDEX 01 01:41:13
  TRACK 50 AUDIO
    TITLE "DISC1Track14_50"
    INDEX 01 01:46:03
